<?xml version="1.0" encoding="UTF-8"?>
<svg xmlns="http://www.w3.org/2000/svg" xmlns:xlink="http://www.w3.org/1999/xlink" viewBox="0 0 48 48" version="1.1" width="48px" height="48px">
<g id="surface1">
<path style=" fill:#CFD8DC;" d="M 40 6 L 12 6 C 9.789063 6 8 7.789063 8 10 L 8 27 C 8 29.210938 9.789063 31 12 31 L 40 31 C 42.210938 31 44 29.210938 44 27 L 44 10 C 44 7.789063 42.210938 6 40 6 Z "/>
<path style=" fill:#9C27B0;" d="M 4 29 L 13 21 L 13 37 Z "/>
<path style=" fill:#9C27B0;" d="M 12 32 C 12 32 17 31.996094 18 32 C 19 32 19 32.996094 19 32.996094 L 19 41 L 25 41 L 25 32 C 25 28.691406 22.308594 26 19 26 L 12 26 Z "/>
<path style=" fill:#78909C;" d="M 9.089844 7.273438 C 8.628906 7.765625 8.292969 8.371094 8.128906 9.046875 L 26 22 L 43.871094 9.046875 C 43.707031 8.371094 43.371094 7.765625 42.910156 7.273438 L 26 19.53125 Z "/>
</g>
</svg>
