<?xml version="1.0" encoding="iso-8859-1"?>
<!-- Generator: Adobe Illustrator 21.0.2, SVG Export Plug-In . SVG Version: 6.00 Build 0)  -->
<svg xmlns="http://www.w3.org/2000/svg" xmlns:xlink="http://www.w3.org/1999/xlink" version="1.1" id="Layer_1" x="0px" y="0px" viewBox="0 0 48 48" style="enable-background:new 0 0 48 48;" xml:space="preserve" width="48px" height="48px">
<path style="fill:#00ACC1;" d="M44,24c0,11.044-8.956,20-20,20S4,35.044,4,24S12.956,4,24,4S44,12.956,44,24z"/>
<path style="fill:#EEEEEE;" d="M40,24c0,8.838-7.162,16-16,16S8,32.838,8,24S15.163,8,24,8S40,15.163,40,24z"/>
<path style="fill:#78909C;" d="M23,39.95C23.332,39.97,23.662,40,24,40s0.668-0.03,1-0.05V36h-2V39.95z"/>
<path style="fill:#78909C;" d="M36,25h3.95C39.97,24.668,40,24.338,40,24s-0.03-0.668-0.05-1H36V25z"/>
<path style="fill:#78909C;" d="M8.05,25H12v-2H8.05C8.03,23.332,8,23.662,8,24S8.03,24.668,8.05,25z"/>
<path d="M31.664,30.27L29.934,32l-6.797-6.797l1.73-1.73L31.664,30.27z"/>
<path d="M27,24c0,1.656-1.344,3-3,3s-3-1.344-3-3s1.344-3,3-3S27,22.344,27,24"/>
<path d="M23,11h2v10.336h-2V11z"/>
<path style="fill:#00ACC1;" d="M25,24c0,0.551-0.449,1-1,1s-1-0.449-1-1s0.449-1,1-1S25,23.449,25,24"/>
</svg>
