<?xml version="1.0" encoding="utf-8"?>
<!-- Generator: Adobe Illustrator 21.0.2, SVG Export Plug-In . SVG Version: 6.00 Build 0)  -->
<svg xmlns="http://www.w3.org/2000/svg" xmlns:xlink="http://www.w3.org/1999/xlink" version="1.1" id="Layer_1" x="0px" y="0px" viewBox="0 0 48 48" style="enable-background:new 0 0 48 48;" xml:space="preserve">
<g id="surface1">
	<path style="fill:#009688;" d="M4,10h40v25H4V10z"/>
	<path style="fill:#00796B;" d="M41,14v21H7V14 M44,12H4v23h40V12z"/>
	<path style="fill:#DD7C12;" d="M42,12v23H6V12H42 M44,10H4v25h40V10z"/>
	<path style="fill:#773D04;" d="M46,38v-2c0-1.1-0.9-2-2-2H4c-1.1,0-2,0.9-2,2v2H46z"/>
	<polygon style="fill:#FFFFFF;" points="28.2,29.4 19,22.2 12.6,26.8 11.4,25.2 19,19.8 27.8,26.6 36.2,16.4 37.8,17.6  "/>
	<path style="fill:#FFFFFF;" d="M19,34h-7v-2h7l1,1L19,34z"/>
</g>
</svg>
